<mxfile host="app.diagrams.net" modified="2023-06-25T07:48:37.876Z" agent="Mozilla/5.0 (Windows NT 10.0; Win64; x64) AppleWebKit/537.36 (KHTML, like Gecko) Chrome/114.0.0.0 Safari/537.36" etag="uV5rNr5qMSipp3k35UVg" version="21.5.0" type="device">
  <diagram id="bjrp2NSFsT4KaqySF5SZ" name="Страница 1">
    <mxGraphModel dx="1050" dy="549" grid="1" gridSize="10" guides="1" tooltips="1" connect="1" arrows="1" fold="1" page="1" pageScale="1" pageWidth="827" pageHeight="1169" math="0" shadow="0">
      <root>
        <mxCell id="0" />
        <mxCell id="1" parent="0" />
        <mxCell id="-jCwMQG3MdBXtkhS-rPF-173" value="" style="rounded=0;whiteSpace=wrap;html=1;dashed=1;fillColor=#f5f5f5;fontColor=#333333;strokeColor=#666666;" parent="1" vertex="1">
          <mxGeometry x="403" y="485" width="390" height="400" as="geometry" />
        </mxCell>
        <mxCell id="-jCwMQG3MdBXtkhS-rPF-57" value="" style="rounded=0;whiteSpace=wrap;html=1;dashed=1;fillColor=#f5f5f5;fontColor=#333333;strokeColor=#666666;" parent="1" vertex="1">
          <mxGeometry x="24" y="120" width="366" height="295" as="geometry" />
        </mxCell>
        <mxCell id="-jCwMQG3MdBXtkhS-rPF-1" value="&lt;font style=&quot;font-size: 16px;&quot; face=&quot;Times New Roman&quot;&gt;&lt;em style=&quot;box-sizing: border-box; color: rgb(44, 45, 48); text-align: start; background-color: rgb(255, 255, 255);&quot;&gt;Задача&lt;/em&gt;: Написать программу, которая из имеющегося массива строк формирует новый массив из строк, длина которых меньше, либо равна 3 символам. Первоначальный массив можно ввести с клавиатуры, либо задать на старте выполнения алгоритма. При решении не рекомендуется пользоваться коллекциями, лучше обойтись исключительно массивами.&lt;/font&gt;" style="text;html=1;strokeColor=none;fillColor=none;align=center;verticalAlign=middle;whiteSpace=wrap;rounded=0;" parent="1" vertex="1">
          <mxGeometry x="110" y="10" width="620" height="90" as="geometry" />
        </mxCell>
        <mxCell id="-jCwMQG3MdBXtkhS-rPF-3" value="Start" style="rounded=1;whiteSpace=wrap;html=1;fillColor=#dae8fc;strokeColor=#6c8ebf;" parent="1" vertex="1">
          <mxGeometry x="40.5" y="430" width="120" height="40" as="geometry" />
        </mxCell>
        <mxCell id="-jCwMQG3MdBXtkhS-rPF-4" style="edgeStyle=orthogonalEdgeStyle;rounded=0;orthogonalLoop=1;jettySize=auto;html=1;exitX=0.5;exitY=1;exitDx=0;exitDy=0;entryX=0.5;entryY=0;entryDx=0;entryDy=0;" parent="1" source="-jCwMQG3MdBXtkhS-rPF-5" target="-jCwMQG3MdBXtkhS-rPF-8" edge="1">
          <mxGeometry relative="1" as="geometry" />
        </mxCell>
        <mxCell id="-jCwMQG3MdBXtkhS-rPF-5" value="i = 0" style="rounded=0;whiteSpace=wrap;html=1;" parent="1" vertex="1">
          <mxGeometry x="60" y="165" width="169" height="30" as="geometry" />
        </mxCell>
        <mxCell id="-jCwMQG3MdBXtkhS-rPF-6" value="Yes" style="edgeStyle=orthogonalEdgeStyle;rounded=0;orthogonalLoop=1;jettySize=auto;html=1;exitX=0.5;exitY=1;exitDx=0;exitDy=0;entryX=0.5;entryY=0;entryDx=0;entryDy=0;" parent="1" source="-jCwMQG3MdBXtkhS-rPF-8" edge="1">
          <mxGeometry relative="1" as="geometry">
            <mxPoint x="144" y="325" as="targetPoint" />
          </mxGeometry>
        </mxCell>
        <mxCell id="-jCwMQG3MdBXtkhS-rPF-7" value="No" style="edgeStyle=orthogonalEdgeStyle;rounded=0;orthogonalLoop=1;jettySize=auto;html=1;exitX=1;exitY=0.5;exitDx=0;exitDy=0;entryX=0;entryY=0.5;entryDx=0;entryDy=0;" parent="1" source="-jCwMQG3MdBXtkhS-rPF-8" target="-jCwMQG3MdBXtkhS-rPF-56" edge="1">
          <mxGeometry relative="1" as="geometry">
            <mxPoint x="254" y="255" as="targetPoint" />
          </mxGeometry>
        </mxCell>
        <mxCell id="-jCwMQG3MdBXtkhS-rPF-8" value="i &amp;lt; arr.length - 1" style="rhombus;whiteSpace=wrap;html=1;" parent="1" vertex="1">
          <mxGeometry x="74" y="215" width="140" height="80" as="geometry" />
        </mxCell>
        <mxCell id="-jCwMQG3MdBXtkhS-rPF-24" style="edgeStyle=orthogonalEdgeStyle;rounded=0;orthogonalLoop=1;jettySize=auto;html=1;exitX=0;exitY=0.5;exitDx=0;exitDy=0;entryX=0;entryY=0.5;entryDx=0;entryDy=0;" parent="1" source="-jCwMQG3MdBXtkhS-rPF-25" target="-jCwMQG3MdBXtkhS-rPF-8" edge="1">
          <mxGeometry relative="1" as="geometry">
            <Array as="points">
              <mxPoint x="40" y="390" />
              <mxPoint x="40" y="255" />
            </Array>
          </mxGeometry>
        </mxCell>
        <mxCell id="-jCwMQG3MdBXtkhS-rPF-25" value="i = i + 1" style="rounded=0;whiteSpace=wrap;html=1;" parent="1" vertex="1">
          <mxGeometry x="84.5" y="375" width="120" height="30" as="geometry" />
        </mxCell>
        <mxCell id="-jCwMQG3MdBXtkhS-rPF-51" value="" style="edgeStyle=orthogonalEdgeStyle;rounded=0;orthogonalLoop=1;jettySize=auto;html=1;exitX=0.5;exitY=1;exitDx=0;exitDy=0;entryX=0.5;entryY=0;entryDx=0;entryDy=0;" parent="1" source="-jCwMQG3MdBXtkhS-rPF-3" target="-jCwMQG3MdBXtkhS-rPF-50" edge="1">
          <mxGeometry relative="1" as="geometry">
            <mxPoint x="101" y="460" as="sourcePoint" />
            <mxPoint x="101" y="640" as="targetPoint" />
          </mxGeometry>
        </mxCell>
        <mxCell id="-jCwMQG3MdBXtkhS-rPF-96" style="edgeStyle=orthogonalEdgeStyle;rounded=0;orthogonalLoop=1;jettySize=auto;html=1;exitX=0.5;exitY=1;exitDx=0;exitDy=0;" parent="1" source="-jCwMQG3MdBXtkhS-rPF-50" target="-jCwMQG3MdBXtkhS-rPF-101" edge="1">
          <mxGeometry relative="1" as="geometry">
            <mxPoint x="144" y="220" as="targetPoint" />
          </mxGeometry>
        </mxCell>
        <mxCell id="-jCwMQG3MdBXtkhS-rPF-50" value="array = []&lt;br&gt;sep = &quot;, &quot;" style="shape=parallelogram;perimeter=parallelogramPerimeter;whiteSpace=wrap;html=1;fixedSize=1;" parent="1" vertex="1">
          <mxGeometry x="40" y="490" width="120" height="30" as="geometry" />
        </mxCell>
        <mxCell id="-jCwMQG3MdBXtkhS-rPF-53" value="arr[i], sep" style="shape=document;whiteSpace=wrap;html=1;boundedLbl=1;" parent="1" vertex="1">
          <mxGeometry x="84.5" y="325" width="120" height="30" as="geometry" />
        </mxCell>
        <mxCell id="-jCwMQG3MdBXtkhS-rPF-55" value="" style="endArrow=classic;html=1;rounded=0;entryX=0.5;entryY=0;entryDx=0;entryDy=0;exitX=0.499;exitY=0.953;exitDx=0;exitDy=0;exitPerimeter=0;" parent="1" source="-jCwMQG3MdBXtkhS-rPF-53" target="-jCwMQG3MdBXtkhS-rPF-25" edge="1">
          <mxGeometry width="50" height="50" relative="1" as="geometry">
            <mxPoint x="150" y="365" as="sourcePoint" />
            <mxPoint x="440" y="335" as="targetPoint" />
          </mxGeometry>
        </mxCell>
        <mxCell id="-jCwMQG3MdBXtkhS-rPF-56" value="arr[i]" style="shape=document;whiteSpace=wrap;html=1;boundedLbl=1;" parent="1" vertex="1">
          <mxGeometry x="260" y="240" width="120" height="30" as="geometry" />
        </mxCell>
        <mxCell id="-jCwMQG3MdBXtkhS-rPF-58" value="&lt;b&gt;Метод вывода массива строк (PrintArrayOfStrings)&lt;/b&gt;" style="text;html=1;strokeColor=none;fillColor=none;align=center;verticalAlign=middle;whiteSpace=wrap;rounded=0;" parent="1" vertex="1">
          <mxGeometry x="65" y="125" width="300" height="30" as="geometry" />
        </mxCell>
        <mxCell id="-jCwMQG3MdBXtkhS-rPF-61" value="" style="rounded=0;whiteSpace=wrap;html=1;dashed=1;fillColor=#f5f5f5;fontColor=#333333;strokeColor=#666666;" parent="1" vertex="1">
          <mxGeometry x="403" y="120" width="390" height="350" as="geometry" />
        </mxCell>
        <mxCell id="-jCwMQG3MdBXtkhS-rPF-62" style="edgeStyle=orthogonalEdgeStyle;rounded=0;orthogonalLoop=1;jettySize=auto;html=1;exitX=0.5;exitY=1;exitDx=0;exitDy=0;entryX=0.5;entryY=0;entryDx=0;entryDy=0;" parent="1" source="-jCwMQG3MdBXtkhS-rPF-63" target="-jCwMQG3MdBXtkhS-rPF-66" edge="1">
          <mxGeometry relative="1" as="geometry" />
        </mxCell>
        <mxCell id="-jCwMQG3MdBXtkhS-rPF-163" value="Yes" style="edgeLabel;html=1;align=center;verticalAlign=middle;resizable=0;points=[];" parent="-jCwMQG3MdBXtkhS-rPF-62" vertex="1" connectable="0">
          <mxGeometry x="0.7611" y="-1" relative="1" as="geometry">
            <mxPoint as="offset" />
          </mxGeometry>
        </mxCell>
        <mxCell id="-jCwMQG3MdBXtkhS-rPF-63" value="count = 0&lt;br&gt;i = 0" style="rounded=0;whiteSpace=wrap;html=1;" parent="1" vertex="1">
          <mxGeometry x="435" y="185" width="169" height="30" as="geometry" />
        </mxCell>
        <mxCell id="-jCwMQG3MdBXtkhS-rPF-64" value="No" style="edgeStyle=orthogonalEdgeStyle;rounded=0;orthogonalLoop=1;jettySize=auto;html=1;exitX=0.5;exitY=1;exitDx=0;exitDy=0;entryX=0.5;entryY=0;entryDx=0;entryDy=0;" parent="1" source="-jCwMQG3MdBXtkhS-rPF-66" edge="1">
          <mxGeometry relative="1" as="geometry">
            <mxPoint x="519" y="430" as="targetPoint" />
            <Array as="points">
              <mxPoint x="519" y="410" />
              <mxPoint x="519" y="410" />
            </Array>
          </mxGeometry>
        </mxCell>
        <mxCell id="-jCwMQG3MdBXtkhS-rPF-65" value="Yes" style="edgeStyle=orthogonalEdgeStyle;rounded=0;orthogonalLoop=1;jettySize=auto;html=1;exitX=1;exitY=0.5;exitDx=0;exitDy=0;entryX=0;entryY=0.5;entryDx=0;entryDy=0;" parent="1" source="-jCwMQG3MdBXtkhS-rPF-66" edge="1">
          <mxGeometry relative="1" as="geometry">
            <mxPoint x="635" y="360" as="targetPoint" />
          </mxGeometry>
        </mxCell>
        <mxCell id="-jCwMQG3MdBXtkhS-rPF-66" value="arr[i].length &amp;lt;= 3" style="rhombus;whiteSpace=wrap;html=1;" parent="1" vertex="1">
          <mxGeometry x="449" y="320" width="140" height="80" as="geometry" />
        </mxCell>
        <mxCell id="-jCwMQG3MdBXtkhS-rPF-67" style="edgeStyle=orthogonalEdgeStyle;rounded=0;orthogonalLoop=1;jettySize=auto;html=1;exitX=0;exitY=0.5;exitDx=0;exitDy=0;entryX=0;entryY=0.5;entryDx=0;entryDy=0;" parent="1" source="-jCwMQG3MdBXtkhS-rPF-68" target="-jCwMQG3MdBXtkhS-rPF-162" edge="1">
          <mxGeometry relative="1" as="geometry">
            <Array as="points">
              <mxPoint x="425" y="445" />
              <mxPoint x="425" y="260" />
            </Array>
          </mxGeometry>
        </mxCell>
        <mxCell id="-jCwMQG3MdBXtkhS-rPF-68" value="i = i + 1" style="rounded=0;whiteSpace=wrap;html=1;" parent="1" vertex="1">
          <mxGeometry x="459.5" y="430" width="120" height="30" as="geometry" />
        </mxCell>
        <mxCell id="-jCwMQG3MdBXtkhS-rPF-72" value="&lt;b&gt;Метод подсчёта количества элементов в массиве с длиной строки не более 3 символов&lt;br&gt;(Count3CharElements)&lt;/b&gt;" style="text;html=1;strokeColor=none;fillColor=none;align=center;verticalAlign=middle;whiteSpace=wrap;rounded=0;" parent="1" vertex="1">
          <mxGeometry x="430" y="120" width="300" height="40" as="geometry" />
        </mxCell>
        <mxCell id="-jCwMQG3MdBXtkhS-rPF-141" value="Yes" style="edgeStyle=orthogonalEdgeStyle;rounded=0;orthogonalLoop=1;jettySize=auto;html=1;exitX=1;exitY=0.5;exitDx=0;exitDy=0;entryX=0;entryY=0.5;entryDx=0;entryDy=0;" parent="1" source="-jCwMQG3MdBXtkhS-rPF-142" target="-jCwMQG3MdBXtkhS-rPF-77" edge="1">
          <mxGeometry x="-0.2488" relative="1" as="geometry">
            <mxPoint x="50" y="865" as="sourcePoint" />
            <Array as="points">
              <mxPoint x="180" y="790" />
              <mxPoint x="180" y="753" />
            </Array>
            <mxPoint as="offset" />
          </mxGeometry>
        </mxCell>
        <mxCell id="-jCwMQG3MdBXtkhS-rPF-137" style="edgeStyle=orthogonalEdgeStyle;rounded=0;orthogonalLoop=1;jettySize=auto;html=1;exitX=1;exitY=0.5;exitDx=0;exitDy=0;entryX=1;entryY=0.5;entryDx=0;entryDy=0;" parent="1" source="-jCwMQG3MdBXtkhS-rPF-77" target="-jCwMQG3MdBXtkhS-rPF-97" edge="1">
          <mxGeometry relative="1" as="geometry">
            <Array as="points">
              <mxPoint x="390" y="753" />
              <mxPoint x="390" y="1115" />
            </Array>
          </mxGeometry>
        </mxCell>
        <mxCell id="-jCwMQG3MdBXtkhS-rPF-77" value="&quot;В массиве нет&lt;br&gt;строк менее, чем&lt;br&gt;с 3 символами&quot;&amp;nbsp;" style="shape=document;whiteSpace=wrap;html=1;boundedLbl=1;" parent="1" vertex="1">
          <mxGeometry x="229" y="720" width="120" height="65" as="geometry" />
        </mxCell>
        <mxCell id="-jCwMQG3MdBXtkhS-rPF-85" value="&lt;i&gt;Использовать метод PrintArrayOfStrings для массива newArray&lt;br&gt;для его вывода в консоль&lt;/i&gt;" style="text;html=1;strokeColor=none;fillColor=none;align=center;verticalAlign=middle;whiteSpace=wrap;rounded=0;" parent="1" vertex="1">
          <mxGeometry x="232.5" y="967.5" width="160" height="65" as="geometry" />
        </mxCell>
        <mxCell id="-jCwMQG3MdBXtkhS-rPF-97" value="End" style="rounded=1;whiteSpace=wrap;html=1;fillColor=#dae8fc;strokeColor=#6c8ebf;" parent="1" vertex="1">
          <mxGeometry x="76.5" y="1095" width="120" height="40" as="geometry" />
        </mxCell>
        <mxCell id="-jCwMQG3MdBXtkhS-rPF-185" style="edgeStyle=orthogonalEdgeStyle;rounded=0;orthogonalLoop=1;jettySize=auto;html=1;exitX=0.5;exitY=1;exitDx=0;exitDy=0;entryX=0.5;entryY=0;entryDx=0;entryDy=0;" parent="1" source="-jCwMQG3MdBXtkhS-rPF-100" target="-jCwMQG3MdBXtkhS-rPF-105" edge="1">
          <mxGeometry relative="1" as="geometry" />
        </mxCell>
        <mxCell id="-jCwMQG3MdBXtkhS-rPF-100" value="PrintArrayOfStrings (array, &#39;, &#39;)" style="rounded=0;whiteSpace=wrap;html=1;fillColor=#d5e8d4;strokeColor=#82b366;" parent="1" vertex="1">
          <mxGeometry x="10.5" y="593.75" width="180" height="30" as="geometry" />
        </mxCell>
        <mxCell id="-jCwMQG3MdBXtkhS-rPF-101" value="[" style="shape=document;whiteSpace=wrap;html=1;boundedLbl=1;" parent="1" vertex="1">
          <mxGeometry x="40.5" y="540" width="120" height="30" as="geometry" />
        </mxCell>
        <mxCell id="-jCwMQG3MdBXtkhS-rPF-104" value="" style="endArrow=classic;html=1;rounded=0;" parent="1" target="-jCwMQG3MdBXtkhS-rPF-100" edge="1">
          <mxGeometry width="50" height="50" relative="1" as="geometry">
            <mxPoint x="101" y="570" as="sourcePoint" />
            <mxPoint x="216" y="390" as="targetPoint" />
          </mxGeometry>
        </mxCell>
        <mxCell id="-jCwMQG3MdBXtkhS-rPF-190" value="No" style="edgeStyle=orthogonalEdgeStyle;rounded=0;orthogonalLoop=1;jettySize=auto;html=1;entryX=0.5;entryY=0;entryDx=0;entryDy=0;exitX=0.5;exitY=1;exitDx=0;exitDy=0;" parent="1" source="-jCwMQG3MdBXtkhS-rPF-142" target="-jCwMQG3MdBXtkhS-rPF-108" edge="1">
          <mxGeometry relative="1" as="geometry" />
        </mxCell>
        <mxCell id="-jCwMQG3MdBXtkhS-rPF-105" value="]" style="shape=document;whiteSpace=wrap;html=1;boundedLbl=1;" parent="1" vertex="1">
          <mxGeometry x="40.5" y="650" width="120" height="30" as="geometry" />
        </mxCell>
        <mxCell id="-jCwMQG3MdBXtkhS-rPF-134" style="edgeStyle=orthogonalEdgeStyle;rounded=0;orthogonalLoop=1;jettySize=auto;html=1;exitX=0.5;exitY=1;exitDx=0;exitDy=0;entryX=0.5;entryY=0;entryDx=0;entryDy=0;" parent="1" source="-jCwMQG3MdBXtkhS-rPF-108" target="-jCwMQG3MdBXtkhS-rPF-131" edge="1">
          <mxGeometry relative="1" as="geometry" />
        </mxCell>
        <mxCell id="-jCwMQG3MdBXtkhS-rPF-108" value="&lt;span style=&quot;border-color: var(--border-color);&quot;&gt;newArray = NewArrayWith3CharElements&lt;br&gt;(array, sizeNewArr)&lt;/span&gt;" style="rounded=0;whiteSpace=wrap;html=1;fillColor=#d5e8d4;strokeColor=#82b366;" parent="1" vertex="1">
          <mxGeometry x="32.5" y="880" width="210" height="40" as="geometry" />
        </mxCell>
        <mxCell id="-jCwMQG3MdBXtkhS-rPF-113" value="&lt;i&gt;Вывод в консоль исходного массива&lt;/i&gt;" style="text;html=1;strokeColor=none;fillColor=none;align=center;verticalAlign=middle;whiteSpace=wrap;rounded=0;" parent="1" vertex="1">
          <mxGeometry x="197.5" y="586.25" width="120" height="37.5" as="geometry" />
        </mxCell>
        <mxCell id="-jCwMQG3MdBXtkhS-rPF-129" style="edgeStyle=orthogonalEdgeStyle;rounded=0;orthogonalLoop=1;jettySize=auto;html=1;exitX=0.5;exitY=1;exitDx=0;exitDy=0;entryX=0.5;entryY=0;entryDx=0;entryDy=0;" parent="1" source="-jCwMQG3MdBXtkhS-rPF-130" target="-jCwMQG3MdBXtkhS-rPF-133" edge="1">
          <mxGeometry relative="1" as="geometry" />
        </mxCell>
        <mxCell id="-jCwMQG3MdBXtkhS-rPF-130" value="PrintArrayOfStrings (newArray, &#39;, &#39;)" style="rounded=0;whiteSpace=wrap;html=1;fillColor=#d5e8d4;strokeColor=#82b366;" parent="1" vertex="1">
          <mxGeometry x="42.5" y="985" width="190" height="30" as="geometry" />
        </mxCell>
        <mxCell id="-jCwMQG3MdBXtkhS-rPF-131" value="[" style="shape=document;whiteSpace=wrap;html=1;boundedLbl=1;" parent="1" vertex="1">
          <mxGeometry x="77.5" y="935" width="120" height="30" as="geometry" />
        </mxCell>
        <mxCell id="-jCwMQG3MdBXtkhS-rPF-132" value="" style="endArrow=classic;html=1;rounded=0;" parent="1" target="-jCwMQG3MdBXtkhS-rPF-130" edge="1">
          <mxGeometry width="50" height="50" relative="1" as="geometry">
            <mxPoint x="138" y="965" as="sourcePoint" />
            <mxPoint x="253" y="785" as="targetPoint" />
          </mxGeometry>
        </mxCell>
        <mxCell id="-jCwMQG3MdBXtkhS-rPF-133" value="]" style="shape=document;whiteSpace=wrap;html=1;boundedLbl=1;" parent="1" vertex="1">
          <mxGeometry x="77.5" y="1035" width="120" height="30" as="geometry" />
        </mxCell>
        <mxCell id="-jCwMQG3MdBXtkhS-rPF-135" value="&lt;i&gt;Получаем&amp;nbsp;&lt;/i&gt;&lt;i style=&quot;border-color: var(--border-color);&quot;&gt;из старого массива&lt;/i&gt;&lt;i&gt;&lt;br&gt;новый с элементами, у которых длина строк не более 3&lt;/i&gt;" style="text;html=1;strokeColor=none;fillColor=none;align=center;verticalAlign=middle;whiteSpace=wrap;rounded=0;" parent="1" vertex="1">
          <mxGeometry x="245" y="860" width="120" height="80" as="geometry" />
        </mxCell>
        <mxCell id="-jCwMQG3MdBXtkhS-rPF-136" value="" style="endArrow=classic;html=1;rounded=0;entryX=0.5;entryY=0;entryDx=0;entryDy=0;exitX=0.492;exitY=1;exitDx=0;exitDy=0;exitPerimeter=0;" parent="1" source="-jCwMQG3MdBXtkhS-rPF-133" target="-jCwMQG3MdBXtkhS-rPF-97" edge="1">
          <mxGeometry width="50" height="50" relative="1" as="geometry">
            <mxPoint x="432.5" y="965" as="sourcePoint" />
            <mxPoint x="482.5" y="915" as="targetPoint" />
          </mxGeometry>
        </mxCell>
        <mxCell id="-jCwMQG3MdBXtkhS-rPF-138" value="&lt;i&gt;Проверка на то, есть ли в новом массиве элементы (чтобы не выводить массив нулей)&lt;/i&gt;" style="text;html=1;strokeColor=none;fillColor=none;align=center;verticalAlign=middle;whiteSpace=wrap;rounded=0;" parent="1" vertex="1">
          <mxGeometry x="140" y="805" width="200" height="37.5" as="geometry" />
        </mxCell>
        <mxCell id="-jCwMQG3MdBXtkhS-rPF-139" value="count = count + 1" style="rounded=0;whiteSpace=wrap;html=1;" parent="1" vertex="1">
          <mxGeometry x="635" y="345" width="120" height="30" as="geometry" />
        </mxCell>
        <mxCell id="-jCwMQG3MdBXtkhS-rPF-142" value="sizeNewArr == 0" style="rhombus;whiteSpace=wrap;html=1;" parent="1" vertex="1">
          <mxGeometry x="40" y="750" width="120" height="80" as="geometry" />
        </mxCell>
        <mxCell id="-jCwMQG3MdBXtkhS-rPF-144" value="" style="endArrow=classic;html=1;rounded=0;entryX=1;entryY=0.5;entryDx=0;entryDy=0;exitX=0.5;exitY=1;exitDx=0;exitDy=0;" parent="1" source="-jCwMQG3MdBXtkhS-rPF-139" target="-jCwMQG3MdBXtkhS-rPF-68" edge="1">
          <mxGeometry width="50" height="50" relative="1" as="geometry">
            <mxPoint x="697.1600000000001" y="429.78999999999996" as="sourcePoint" />
            <mxPoint x="695" y="515" as="targetPoint" />
            <Array as="points">
              <mxPoint x="695" y="445" />
            </Array>
          </mxGeometry>
        </mxCell>
        <mxCell id="-jCwMQG3MdBXtkhS-rPF-161" style="edgeStyle=orthogonalEdgeStyle;rounded=0;orthogonalLoop=1;jettySize=auto;html=1;exitX=0.5;exitY=1;exitDx=0;exitDy=0;entryX=0.5;entryY=0;entryDx=0;entryDy=0;" parent="1" source="-jCwMQG3MdBXtkhS-rPF-145" target="-jCwMQG3MdBXtkhS-rPF-150" edge="1">
          <mxGeometry relative="1" as="geometry" />
        </mxCell>
        <mxCell id="-jCwMQG3MdBXtkhS-rPF-145" value="newArr = [size]" style="rounded=0;whiteSpace=wrap;html=1;" parent="1" vertex="1">
          <mxGeometry x="439" y="535" width="183" height="30" as="geometry" />
        </mxCell>
        <mxCell id="-jCwMQG3MdBXtkhS-rPF-147" value="&lt;b&gt;Метод создания массива из элементов старого с длиной строки не более 3 символов&lt;br&gt;(NewArrayWith3CharElements)&lt;/b&gt;" style="text;html=1;strokeColor=none;fillColor=none;align=center;verticalAlign=middle;whiteSpace=wrap;rounded=0;" parent="1" vertex="1">
          <mxGeometry x="453" y="485" width="300" height="40" as="geometry" />
        </mxCell>
        <mxCell id="-jCwMQG3MdBXtkhS-rPF-149" value="Yes" style="edgeStyle=orthogonalEdgeStyle;rounded=0;orthogonalLoop=1;jettySize=auto;html=1;exitX=0.5;exitY=1;exitDx=0;exitDy=0;entryX=0.5;entryY=0;entryDx=0;entryDy=0;" parent="1" source="-jCwMQG3MdBXtkhS-rPF-167" target="-jCwMQG3MdBXtkhS-rPF-153" edge="1">
          <mxGeometry relative="1" as="geometry" />
        </mxCell>
        <mxCell id="-jCwMQG3MdBXtkhS-rPF-150" value="i = 0&lt;br&gt;j = 0" style="rounded=0;whiteSpace=wrap;html=1;" parent="1" vertex="1">
          <mxGeometry x="446" y="580" width="169" height="30" as="geometry" />
        </mxCell>
        <mxCell id="-jCwMQG3MdBXtkhS-rPF-151" value="No" style="edgeStyle=orthogonalEdgeStyle;rounded=0;orthogonalLoop=1;jettySize=auto;html=1;exitX=0.5;exitY=1;exitDx=0;exitDy=0;entryX=0.5;entryY=0;entryDx=0;entryDy=0;" parent="1" source="-jCwMQG3MdBXtkhS-rPF-153" edge="1">
          <mxGeometry relative="1" as="geometry">
            <mxPoint x="530" y="835" as="targetPoint" />
            <Array as="points">
              <mxPoint x="530" y="815" />
              <mxPoint x="530" y="815" />
            </Array>
          </mxGeometry>
        </mxCell>
        <mxCell id="-jCwMQG3MdBXtkhS-rPF-152" value="Yes" style="edgeStyle=orthogonalEdgeStyle;rounded=0;orthogonalLoop=1;jettySize=auto;html=1;exitX=1;exitY=0.5;exitDx=0;exitDy=0;entryX=0;entryY=0.5;entryDx=0;entryDy=0;" parent="1" source="-jCwMQG3MdBXtkhS-rPF-153" edge="1">
          <mxGeometry relative="1" as="geometry">
            <mxPoint x="646" y="765" as="targetPoint" />
          </mxGeometry>
        </mxCell>
        <mxCell id="-jCwMQG3MdBXtkhS-rPF-153" value="arr[i].length &amp;lt;= 3" style="rhombus;whiteSpace=wrap;html=1;" parent="1" vertex="1">
          <mxGeometry x="460" y="725" width="140" height="80" as="geometry" />
        </mxCell>
        <mxCell id="-jCwMQG3MdBXtkhS-rPF-154" style="edgeStyle=orthogonalEdgeStyle;rounded=0;orthogonalLoop=1;jettySize=auto;html=1;exitX=0;exitY=0.5;exitDx=0;exitDy=0;entryX=0;entryY=0.5;entryDx=0;entryDy=0;" parent="1" source="-jCwMQG3MdBXtkhS-rPF-155" target="-jCwMQG3MdBXtkhS-rPF-167" edge="1">
          <mxGeometry relative="1" as="geometry">
            <Array as="points">
              <mxPoint x="436" y="850" />
              <mxPoint x="436" y="665" />
            </Array>
          </mxGeometry>
        </mxCell>
        <mxCell id="-jCwMQG3MdBXtkhS-rPF-155" value="i = i + 1" style="rounded=0;whiteSpace=wrap;html=1;" parent="1" vertex="1">
          <mxGeometry x="470.5" y="835" width="120" height="30" as="geometry" />
        </mxCell>
        <mxCell id="-jCwMQG3MdBXtkhS-rPF-157" value="newArr[j] = arr[i]" style="rounded=0;whiteSpace=wrap;html=1;" parent="1" vertex="1">
          <mxGeometry x="646" y="750" width="120" height="30" as="geometry" />
        </mxCell>
        <mxCell id="-jCwMQG3MdBXtkhS-rPF-158" value="" style="endArrow=classic;html=1;rounded=0;entryX=0.5;entryY=0;entryDx=0;entryDy=0;exitX=0.5;exitY=1;exitDx=0;exitDy=0;" parent="1" source="-jCwMQG3MdBXtkhS-rPF-157" edge="1">
          <mxGeometry width="50" height="50" relative="1" as="geometry">
            <mxPoint x="366" y="970" as="sourcePoint" />
            <mxPoint x="706" y="805" as="targetPoint" />
          </mxGeometry>
        </mxCell>
        <mxCell id="-jCwMQG3MdBXtkhS-rPF-159" value="" style="endArrow=classic;html=1;rounded=0;entryX=1;entryY=0.5;entryDx=0;entryDy=0;exitX=0.5;exitY=1;exitDx=0;exitDy=0;exitPerimeter=0;" parent="1" target="-jCwMQG3MdBXtkhS-rPF-155" edge="1">
          <mxGeometry width="50" height="50" relative="1" as="geometry">
            <mxPoint x="706" y="835" as="sourcePoint" />
            <mxPoint x="706" y="920" as="targetPoint" />
            <Array as="points">
              <mxPoint x="706" y="850" />
            </Array>
          </mxGeometry>
        </mxCell>
        <mxCell id="-jCwMQG3MdBXtkhS-rPF-165" value="No" style="edgeStyle=orthogonalEdgeStyle;rounded=0;orthogonalLoop=1;jettySize=auto;html=1;exitX=1;exitY=0.5;exitDx=0;exitDy=0;entryX=0;entryY=0.5;entryDx=0;entryDy=0;" parent="1" source="-jCwMQG3MdBXtkhS-rPF-162" target="-jCwMQG3MdBXtkhS-rPF-164" edge="1">
          <mxGeometry relative="1" as="geometry" />
        </mxCell>
        <mxCell id="-jCwMQG3MdBXtkhS-rPF-162" value="i &amp;lt; arr.length" style="rhombus;whiteSpace=wrap;html=1;" parent="1" vertex="1">
          <mxGeometry x="449" y="220" width="140" height="80" as="geometry" />
        </mxCell>
        <mxCell id="-jCwMQG3MdBXtkhS-rPF-164" value="count" style="shape=document;whiteSpace=wrap;html=1;boundedLbl=1;" parent="1" vertex="1">
          <mxGeometry x="635" y="245" width="120" height="30" as="geometry" />
        </mxCell>
        <mxCell id="-jCwMQG3MdBXtkhS-rPF-169" style="edgeStyle=orthogonalEdgeStyle;rounded=0;orthogonalLoop=1;jettySize=auto;html=1;exitX=0.5;exitY=1;exitDx=0;exitDy=0;entryX=0.5;entryY=0;entryDx=0;entryDy=0;" parent="1" source="-jCwMQG3MdBXtkhS-rPF-166" target="-jCwMQG3MdBXtkhS-rPF-142" edge="1">
          <mxGeometry relative="1" as="geometry" />
        </mxCell>
        <mxCell id="-jCwMQG3MdBXtkhS-rPF-166" value="&lt;span style=&quot;border-color: var(--border-color);&quot;&gt;sizeNewArr = Count3CharElements (array)&lt;/span&gt;" style="rounded=0;whiteSpace=wrap;html=1;" parent="1" vertex="1">
          <mxGeometry x="20" y="690" width="160" height="30" as="geometry" />
        </mxCell>
        <mxCell id="-jCwMQG3MdBXtkhS-rPF-168" value="" style="edgeStyle=orthogonalEdgeStyle;rounded=0;orthogonalLoop=1;jettySize=auto;html=1;exitX=0.5;exitY=1;exitDx=0;exitDy=0;entryX=0.5;entryY=0;entryDx=0;entryDy=0;" parent="1" source="-jCwMQG3MdBXtkhS-rPF-150" target="-jCwMQG3MdBXtkhS-rPF-167" edge="1">
          <mxGeometry relative="1" as="geometry">
            <mxPoint x="531" y="610" as="sourcePoint" />
            <mxPoint x="530" y="725" as="targetPoint" />
          </mxGeometry>
        </mxCell>
        <mxCell id="-jCwMQG3MdBXtkhS-rPF-167" value="i &amp;lt; arr.length" style="rhombus;whiteSpace=wrap;html=1;" parent="1" vertex="1">
          <mxGeometry x="460" y="625" width="140" height="80" as="geometry" />
        </mxCell>
        <mxCell id="-jCwMQG3MdBXtkhS-rPF-170" value="No" style="edgeStyle=orthogonalEdgeStyle;rounded=0;orthogonalLoop=1;jettySize=auto;html=1;exitX=1;exitY=0.5;exitDx=0;exitDy=0;entryX=0;entryY=0.5;entryDx=0;entryDy=0;" parent="1" target="-jCwMQG3MdBXtkhS-rPF-171" edge="1">
          <mxGeometry relative="1" as="geometry">
            <mxPoint x="600" y="665" as="sourcePoint" />
          </mxGeometry>
        </mxCell>
        <mxCell id="-jCwMQG3MdBXtkhS-rPF-171" value="newArr" style="shape=document;whiteSpace=wrap;html=1;boundedLbl=1;" parent="1" vertex="1">
          <mxGeometry x="646" y="650" width="120" height="30" as="geometry" />
        </mxCell>
        <mxCell id="-jCwMQG3MdBXtkhS-rPF-172" value="j = j +1" style="rounded=0;whiteSpace=wrap;html=1;" parent="1" vertex="1">
          <mxGeometry x="646" y="805" width="120" height="30" as="geometry" />
        </mxCell>
      </root>
    </mxGraphModel>
  </diagram>
</mxfile>
